<svg width="210" height="57" viewBox="0 0 210 57" fill="none" xmlns="http://www.w3.org/2000/svg">
<path d="M2.33275 41V13L11.9327 12.04V41H2.33275ZM17.6527 20.6H25.3727L20.4927 28.36L25.6927 41H15.5327L12.4927 29.72L17.6527 20.6ZM49.2565 35.64C49.2565 36.5733 49.3498 37.44 49.5365 38.24C49.7232 39.04 50.0432 39.8267 50.4965 40.6C50.0165 40.92 49.3365 41.16 48.4565 41.32C47.5765 41.5067 46.7898 41.6 46.0965 41.6C43.1632 41.6 41.2032 40.8133 40.2165 39.24C39.4965 40.2 38.6565 40.88 37.6965 41.28C36.7632 41.68 35.6432 41.88 34.3365 41.88C32.3098 41.88 30.7498 41.48 29.6565 40.68C28.5898 39.8533 27.8565 38.7067 27.4565 37.24C27.0832 35.7467 26.8965 33.8533 26.8965 31.56V20.6H36.7365V31.36C36.7365 34.1333 36.7898 36.04 36.8965 37.08C37.0298 38.12 37.3632 38.64 37.8965 38.64C38.6698 38.64 39.1498 38.28 39.3365 37.56C39.5498 36.8133 39.6565 35.8 39.6565 34.52V20.6H49.2565V35.64ZM74.8406 35.64C74.8406 36.5733 74.9339 37.44 75.1206 38.24C75.3072 39.04 75.6272 39.8267 76.0806 40.6C75.6006 40.92 74.9206 41.16 74.0406 41.32C73.1872 41.5067 72.4006 41.6 71.6806 41.6C68.7739 41.6 66.8139 40.8133 65.8006 39.24C65.1072 40.2 64.2806 40.88 63.3206 41.28C62.3872 41.68 61.2672 41.88 59.9606 41.88C57.1872 41.88 55.1739 40.8533 53.9206 38.8C52.6939 36.72 52.0806 34.0133 52.0806 30.68C52.0806 27 53.0939 24.2667 55.1206 22.48C57.1739 20.6933 60.1206 19.8 63.9606 19.8H65.2406V13L74.8406 12.04V35.64ZM65.2406 22.64C64.9472 22.3467 64.5606 22.2 64.0806 22.2C63.1206 22.2 62.4806 22.9733 62.1606 24.52C61.8672 26.0667 61.7206 28.0533 61.7206 30.48V31.72C61.7206 33.9067 61.8272 35.6133 62.0406 36.84C62.2539 38.04 62.7472 38.64 63.5206 38.64C64.6672 38.64 65.2406 37.3467 65.2406 34.76V22.64ZM90.9474 39.24C90.5474 40.1733 89.8808 40.84 88.9474 41.24C88.0141 41.6667 86.9341 41.88 85.7074 41.88C83.1741 41.88 81.0541 41.4 79.3474 40.44C77.6408 39.48 76.7874 37.9467 76.7874 35.84C76.7874 33.2 78.0541 31.4667 80.5874 30.64C83.1474 29.7867 86.4008 29.36 90.3474 29.36V25.88C90.3474 24.7333 90.2274 23.8267 89.9874 23.16C89.7474 22.4933 89.2274 22.16 88.4274 22.16C87.3874 22.16 86.6808 22.52 86.3074 23.24C85.9608 23.9333 85.7874 24.92 85.7874 26.2C85.7874 26.7067 85.8141 27.4133 85.8674 28.32C85.6541 28.4267 85.2808 28.5067 84.7474 28.56C84.2408 28.6133 83.8141 28.64 83.4674 28.64C82.0274 28.64 80.7874 28.3467 79.7474 27.76C78.7341 27.1733 78.2274 26.28 78.2274 25.08C78.2274 23.0267 79.3208 21.64 81.5074 20.92C83.7208 20.1733 86.1208 19.8 88.7074 19.8C92.2541 19.8 95.0141 20.3467 96.9874 21.44C98.9608 22.5067 99.9474 24.4667 99.9474 27.32V35.64C99.9474 36.5733 100.041 37.44 100.227 38.24C100.414 39.04 100.734 39.8267 101.187 40.6C100.707 40.92 100.027 41.16 99.1474 41.32C98.2941 41.5067 97.5208 41.6 96.8274 41.6C93.8941 41.6 91.9341 40.8133 90.9474 39.24ZM88.2674 38.96C89.0408 38.96 89.5741 38.5867 89.8674 37.84C90.1874 37.0667 90.3474 36.1467 90.3474 35.08V31.36C88.8274 31.36 87.7474 31.7067 87.1074 32.4C86.4674 33.0667 86.1474 34.16 86.1474 35.68C86.1474 36.6133 86.3074 37.4 86.6274 38.04C86.9741 38.6533 87.5208 38.96 88.2674 38.96ZM118.19 19.8C123.444 19.8 126.07 23.3733 126.07 30.52C126.07 34.3067 125.004 37.1467 122.87 39.04C120.737 40.9333 117.697 41.88 113.75 41.88H112.87V48.16L103.27 48.72V20.6L110.99 20.12L111.39 23.72C111.924 22.3067 112.75 21.3067 113.87 20.72C115.017 20.1067 116.457 19.8 118.19 19.8ZM114.39 22.8C113.777 22.8 113.364 23.0667 113.15 23.6C112.937 24.1067 112.83 24.8133 112.83 25.72L112.87 28V39.04C113.164 39.3333 113.564 39.48 114.07 39.48C115.084 39.48 115.724 38.7067 115.99 37.16C116.284 35.5867 116.43 33.44 116.43 30.72C116.43 28.2667 116.31 26.3333 116.07 24.92C115.83 23.5067 115.27 22.8 114.39 22.8ZM141.455 39.24C141.055 40.1733 140.389 40.84 139.455 41.24C138.522 41.6667 137.442 41.88 136.215 41.88C133.682 41.88 131.562 41.4 129.855 40.44C128.149 39.48 127.295 37.9467 127.295 35.84C127.295 33.2 128.562 31.4667 131.095 30.64C133.655 29.7867 136.909 29.36 140.855 29.36V25.88C140.855 24.7333 140.735 23.8267 140.495 23.16C140.255 22.4933 139.735 22.16 138.935 22.16C137.895 22.16 137.189 22.52 136.815 23.24C136.469 23.9333 136.295 24.92 136.295 26.2C136.295 26.7067 136.322 27.4133 136.375 28.32C136.162 28.4267 135.789 28.5067 135.255 28.56C134.749 28.6133 134.322 28.64 133.975 28.64C132.535 28.64 131.295 28.3467 130.255 27.76C129.242 27.1733 128.735 26.28 128.735 25.08C128.735 23.0267 129.829 21.64 132.015 20.92C134.229 20.1733 136.629 19.8 139.215 19.8C142.762 19.8 145.522 20.3467 147.495 21.44C149.469 22.5067 150.455 24.4667 150.455 27.32V35.64C150.455 36.5733 150.549 37.44 150.735 38.24C150.922 39.04 151.242 39.8267 151.695 40.6C151.215 40.92 150.535 41.16 149.655 41.32C148.802 41.5067 148.029 41.6 147.335 41.6C144.402 41.6 142.442 40.8133 141.455 39.24ZM138.775 38.96C139.549 38.96 140.082 38.5867 140.375 37.84C140.695 37.0667 140.855 36.1467 140.855 35.08V31.36C139.335 31.36 138.255 31.7067 137.615 32.4C136.975 33.0667 136.655 34.16 136.655 35.68C136.655 36.6133 136.815 37.4 137.135 38.04C137.482 38.6533 138.029 38.96 138.775 38.96ZM164.258 23.44C163.698 23.44 163.351 23.68 163.218 24.16C163.111 24.64 163.058 25.5467 163.058 26.88V41H153.458V20.6L161.138 20.12L161.538 23.72C162.018 22.44 162.778 21.4667 163.818 20.8C164.885 20.1333 166.125 19.8 167.538 19.8C169.431 19.8 170.925 20.32 172.018 21.36C173.138 22.3733 173.698 23.8133 173.698 25.68C173.698 27.3067 173.231 28.5733 172.298 29.48C171.391 30.3867 170.111 30.84 168.458 30.84C168.111 30.84 167.658 30.8133 167.098 30.76C166.538 30.68 166.151 30.5733 165.938 30.44C166.071 29.8267 166.138 28.9467 166.138 27.8C166.138 26.4933 166.018 25.44 165.778 24.64C165.565 23.84 165.058 23.44 164.258 23.44ZM187.783 39.24C187.383 40.1733 186.717 40.84 185.783 41.24C184.85 41.6667 183.77 41.88 182.543 41.88C180.01 41.88 177.89 41.4 176.183 40.44C174.477 39.48 173.623 37.9467 173.623 35.84C173.623 33.2 174.89 31.4667 177.423 30.64C179.983 29.7867 183.237 29.36 187.183 29.36V25.88C187.183 24.7333 187.063 23.8267 186.823 23.16C186.583 22.4933 186.063 22.16 185.263 22.16C184.223 22.16 183.517 22.52 183.143 23.24C182.797 23.9333 182.623 24.92 182.623 26.2C182.623 26.7067 182.65 27.4133 182.703 28.32C182.49 28.4267 182.117 28.5067 181.583 28.56C181.077 28.6133 180.65 28.64 180.303 28.64C178.863 28.64 177.623 28.3467 176.583 27.76C175.57 27.1733 175.063 26.28 175.063 25.08C175.063 23.0267 176.157 21.64 178.343 20.92C180.557 20.1733 182.957 19.8 185.543 19.8C189.09 19.8 191.85 20.3467 193.823 21.44C195.797 22.5067 196.783 24.4667 196.783 27.32V35.64C196.783 36.5733 196.877 37.44 197.063 38.24C197.25 39.04 197.57 39.8267 198.023 40.6C197.543 40.92 196.863 41.16 195.983 41.32C195.13 41.5067 194.357 41.6 193.663 41.6C190.73 41.6 188.77 40.8133 187.783 39.24ZM185.103 38.96C185.877 38.96 186.41 38.5867 186.703 37.84C187.023 37.0667 187.183 36.1467 187.183 35.08V31.36C185.663 31.36 184.583 31.7067 183.943 32.4C183.303 33.0667 182.983 34.16 182.983 35.68C182.983 36.6133 183.143 37.4 183.463 38.04C183.81 38.6533 184.357 38.96 185.103 38.96ZM203.626 34.96C205.013 34.96 206.133 35.2667 206.986 35.88C207.84 36.4933 208.266 37.3333 208.266 38.4C208.266 39.4667 207.813 40.2933 206.906 40.88C206.026 41.4667 204.866 41.76 203.426 41.76C202.013 41.76 200.866 41.48 199.986 40.92C199.106 40.3333 198.666 39.52 198.666 38.48C198.666 37.4133 199.133 36.56 200.066 35.92C201 35.28 202.186 34.96 203.626 34.96Z" fill="white"/>
<path d="M2.92045 56.4545H3.92614V52.9943H4.01136C4.23295 53.3523 4.65909 54.1364 5.92045 54.1364C7.55682 54.1364 8.69886 52.8239 8.69886 50.7443C8.69886 48.6818 7.55682 47.3693 5.90341 47.3693C4.625 47.3693 4.23295 48.1534 4.01136 48.4943H3.89205V47.4545H2.92045V56.4545ZM3.90909 50.7273C3.90909 49.2614 4.55682 48.2727 5.78409 48.2727C7.0625 48.2727 7.69318 49.3466 7.69318 50.7273C7.69318 52.125 7.04545 53.233 5.78409 53.233C4.57386 53.233 3.90909 52.2102 3.90909 50.7273ZM10.233 54H11.2386V49.858C11.2386 48.9716 11.9375 48.3239 12.892 48.3239C13.1605 48.3239 13.4375 48.375 13.5057 48.392V47.3693C13.3906 47.3608 13.1264 47.3523 12.9773 47.3523C12.1932 47.3523 11.5114 47.7955 11.2727 48.4432H11.2045V47.4545H10.233V54ZM17.2429 54.1364C18.5724 54.1364 19.544 53.4716 19.8509 52.483L18.8793 52.2102C18.6236 52.892 18.0312 53.233 17.2429 53.233C16.0625 53.233 15.2486 52.4702 15.2017 51.0682H19.9531V50.642C19.9531 48.2045 18.5043 47.3693 17.1406 47.3693C15.3679 47.3693 14.1918 48.767 14.1918 50.7784C14.1918 52.7898 15.3509 54.1364 17.2429 54.1364ZM15.2017 50.1989C15.2699 49.1804 15.9901 48.2727 17.1406 48.2727C18.2315 48.2727 18.9304 49.0909 18.9304 50.1989H15.2017ZM21.483 54H22.4886V49.9091C22.4886 48.9503 23.1875 48.2727 23.9716 48.2727C24.7344 48.2727 25.267 48.7713 25.267 49.517V54H26.2898V49.7386C26.2898 48.8949 26.8182 48.2727 27.7386 48.2727C28.4545 48.2727 29.0682 48.652 29.0682 49.6193V54H30.0739V49.6193C30.0739 48.081 29.2472 47.3693 28.0795 47.3693C27.142 47.3693 26.456 47.7997 26.1193 48.4773H26.0511C25.7273 47.7784 25.1562 47.3693 24.2955 47.3693C23.4432 47.3693 22.8125 47.7784 22.5398 48.4773H22.4545V47.4545H21.483V54ZM31.9126 54H32.9183V47.4545H31.9126V54ZM32.424 46.3636C32.8161 46.3636 33.1399 46.0568 33.1399 45.6818C33.1399 45.3068 32.8161 45 32.424 45C32.032 45 31.7081 45.3068 31.7081 45.6818C31.7081 46.0568 32.032 46.3636 32.424 46.3636ZM38.8853 51.3239C38.8853 52.5511 37.9478 53.1136 37.1978 53.1136C36.3626 53.1136 35.766 52.5 35.766 51.5455V47.4545H34.7603V51.6136C34.7603 53.2841 35.6467 54.0852 36.8739 54.0852C37.8626 54.0852 38.5103 53.5568 38.8171 52.892H38.8853V54H39.891V47.4545H38.8853V51.3239ZM41.733 54H42.7386V49.9091C42.7386 48.9503 43.4375 48.2727 44.2216 48.2727C44.9844 48.2727 45.517 48.7713 45.517 49.517V54H46.5398V49.7386C46.5398 48.8949 47.0682 48.2727 47.9886 48.2727C48.7045 48.2727 49.3182 48.652 49.3182 49.6193V54H50.3239V49.6193C50.3239 48.081 49.4972 47.3693 48.3295 47.3693C47.392 47.3693 46.706 47.7997 46.3693 48.4773H46.3011C45.9773 47.7784 45.4062 47.3693 44.5455 47.3693C43.6932 47.3693 43.0625 47.7784 42.7898 48.4773H42.7045V47.4545H41.733V54ZM58.0092 54.1364C59.2706 54.1364 59.6967 53.3523 59.9183 52.9943H60.0376V54H61.0092V45.2727H60.0036V48.4943H59.9183C59.6967 48.1534 59.3047 47.3693 58.0263 47.3693C56.3729 47.3693 55.2308 48.6818 55.2308 50.7443C55.2308 52.8239 56.3729 54.1364 58.0092 54.1364ZM58.1456 53.233C56.8842 53.233 56.2365 52.125 56.2365 50.7273C56.2365 49.3466 56.8672 48.2727 58.1456 48.2727C59.3729 48.2727 60.0206 49.2614 60.0206 50.7273C60.0206 52.2102 59.3558 53.233 58.1456 53.233ZM65.7351 54.1364C67.0646 54.1364 68.0362 53.4716 68.343 52.483L67.3714 52.2102C67.1158 52.892 66.5234 53.233 65.7351 53.233C64.5547 53.233 63.7408 52.4702 63.6939 51.0682H68.4453V50.642C68.4453 48.2045 66.9964 47.3693 65.6328 47.3693C63.8601 47.3693 62.6839 48.767 62.6839 50.7784C62.6839 52.7898 63.843 54.1364 65.7351 54.1364ZM63.6939 50.1989C63.7621 49.1804 64.4822 48.2727 65.6328 48.2727C66.7237 48.2727 67.4226 49.0909 67.4226 50.1989H63.6939ZM74.6115 48.9205C74.2962 47.9915 73.5888 47.3693 72.2933 47.3693C70.9126 47.3693 69.8899 48.1534 69.8899 49.2614C69.8899 50.1648 70.4268 50.7699 71.6286 51.0511L72.7195 51.3068C73.38 51.4602 73.6911 51.7756 73.6911 52.2273C73.6911 52.7898 73.0945 53.25 72.157 53.25C71.3345 53.25 70.8189 52.8963 70.6399 52.1932L69.6854 52.4318C69.9197 53.544 70.8359 54.1364 72.174 54.1364C73.6953 54.1364 74.7308 53.3054 74.7308 52.1761C74.7308 51.2642 74.1598 50.6889 72.9922 50.4034L72.0206 50.1648C71.245 49.973 70.8956 49.7131 70.8956 49.2102C70.8956 48.6477 71.4922 48.2386 72.2933 48.2386C73.1712 48.2386 73.5334 48.7244 73.7081 49.1761L74.6115 48.9205ZM76.2447 54H77.2504V47.4545H76.2447V54ZM76.756 46.3636C77.1481 46.3636 77.4719 46.0568 77.4719 45.6818C77.4719 45.3068 77.1481 45 76.756 45C76.364 45 76.0401 45.3068 76.0401 45.6818C76.0401 46.0568 76.364 46.3636 76.756 46.3636ZM81.7344 56.5909C83.3026 56.5909 84.5639 55.875 84.5639 54.1875V47.4545H83.5923V48.4943H83.4901C83.2685 48.1534 82.8594 47.3693 81.581 47.3693C79.9276 47.3693 78.7855 48.6818 78.7855 50.6932C78.7855 52.7386 79.9787 53.8977 81.5639 53.8977C82.8423 53.8977 83.2514 53.1477 83.473 52.7898H83.5582V54.1193C83.5582 55.2102 82.7912 55.7045 81.7344 55.7045C80.5455 55.7045 80.1278 55.0781 79.8594 54.7159L79.0582 55.2784C79.4673 55.9645 80.2727 56.5909 81.7344 56.5909ZM81.7003 52.9943C80.4389 52.9943 79.7912 52.0398 79.7912 50.6761C79.7912 49.3466 80.4219 48.2727 81.7003 48.2727C82.9276 48.2727 83.5753 49.2614 83.5753 50.6761C83.5753 52.125 82.9105 52.9943 81.7003 52.9943ZM87.4105 50.0625C87.4105 48.9205 88.1179 48.2727 89.081 48.2727C90.0142 48.2727 90.581 48.8821 90.581 49.9091V54H91.5866V49.8409C91.5866 48.1705 90.696 47.3693 89.3707 47.3693C88.3821 47.3693 87.7685 47.8125 87.4616 48.4773H87.3764V47.4545H86.4048V54H87.4105V50.0625ZM98.0607 48.9205C97.7454 47.9915 97.038 47.3693 95.7425 47.3693C94.3619 47.3693 93.3391 48.1534 93.3391 49.2614C93.3391 50.1648 93.8761 50.7699 95.0778 51.0511L96.1687 51.3068C96.8292 51.4602 97.1403 51.7756 97.1403 52.2273C97.1403 52.7898 96.5437 53.25 95.6062 53.25C94.7837 53.25 94.2681 52.8963 94.0891 52.1932L93.1346 52.4318C93.369 53.544 94.2852 54.1364 95.6232 54.1364C97.1445 54.1364 98.18 53.3054 98.18 52.1761C98.18 51.2642 97.609 50.6889 96.4414 50.4034L95.4698 50.1648C94.6942 49.973 94.3448 49.7131 94.3448 49.2102C94.3448 48.6477 94.9414 48.2386 95.7425 48.2386C96.6204 48.2386 96.9826 48.7244 97.1573 49.1761L98.0607 48.9205Z" fill="white"/>
<path d="M84.1449 15H85.1974V13.9105H85.3267C85.5668 14.2983 86.0284 15.1477 87.3949 15.1477C89.1676 15.1477 90.4048 13.7259 90.4048 11.473C90.4048 9.23864 89.1676 7.81676 87.3764 7.81676C85.9915 7.81676 85.5668 8.66619 85.3267 9.03551H85.2344V5.54545H84.1449V15ZM85.2159 11.4545C85.2159 9.86648 85.9176 8.79545 87.2472 8.79545C88.6321 8.79545 89.3153 9.95881 89.3153 11.4545C89.3153 12.9688 88.6136 14.169 87.2472 14.169C85.9361 14.169 85.2159 13.0611 85.2159 11.4545ZM92.0714 15H93.1609V10.5128C93.1609 9.55256 93.918 8.85085 94.9521 8.85085C95.2429 8.85085 95.543 8.90625 95.6168 8.92472V7.81676C95.4922 7.80753 95.206 7.79829 95.0444 7.79829C94.195 7.79829 93.4563 8.27841 93.1978 8.98011H93.1239V7.90909H92.0714V15ZM99.5732 15.1477C101.494 15.1477 102.786 13.6889 102.786 11.4915C102.786 9.27557 101.494 7.81676 99.5732 7.81676C97.6527 7.81676 96.3601 9.27557 96.3601 11.4915C96.3601 13.6889 97.6527 15.1477 99.5732 15.1477ZM99.5732 14.169C98.1143 14.169 97.4496 12.9134 97.4496 11.4915C97.4496 10.0696 98.1143 8.79545 99.5732 8.79545C101.032 8.79545 101.697 10.0696 101.697 11.4915C101.697 12.9134 101.032 14.169 99.5732 14.169ZM108.918 12.1009C108.918 13.4304 107.902 14.0398 107.09 14.0398C106.185 14.0398 105.539 13.375 105.539 12.3409V7.90909H104.449V12.4148C104.449 14.2244 105.41 15.0923 106.739 15.0923C107.81 15.0923 108.512 14.5199 108.844 13.7997H108.918V15H110.008V7.90909H108.918V12.1009ZM114.865 17.8068C116.564 17.8068 117.931 17.0312 117.931 15.2031V7.90909H116.878V9.03551H116.767C116.527 8.66619 116.084 7.81676 114.699 7.81676C112.908 7.81676 111.671 9.23864 111.671 11.4176C111.671 13.6335 112.963 14.8892 114.681 14.8892C116.066 14.8892 116.509 14.0767 116.749 13.6889H116.841V15.1293C116.841 16.3111 116.01 16.8466 114.865 16.8466C113.577 16.8466 113.125 16.168 112.834 15.7756L111.966 16.3849C112.409 17.1282 113.282 17.8068 114.865 17.8068ZM114.828 13.9105C113.462 13.9105 112.76 12.8764 112.76 11.3991C112.76 9.95881 113.443 8.79545 114.828 8.79545C116.158 8.79545 116.86 9.86648 116.86 11.3991C116.86 12.9688 116.139 13.9105 114.828 13.9105ZM121.014 10.7344C121.014 9.49716 121.804 8.79545 122.879 8.79545C123.904 8.79545 124.523 9.44176 124.523 10.5682V15H125.612V10.4943C125.612 8.67081 124.643 7.81676 123.193 7.81676C122.076 7.81676 121.439 8.28303 121.107 9.01705H121.014V5.54545H119.925V15H121.014V10.7344ZM130.689 7.90909H129.175V6.21023H128.086V7.90909H127.015V8.83239H128.086V13.2642C128.086 14.5014 129.083 15.0923 130.006 15.0923C130.412 15.0923 130.671 15.0185 130.819 14.9631L130.597 13.9844C130.505 14.0028 130.357 14.0398 130.117 14.0398C129.637 14.0398 129.175 13.892 129.175 12.9688V8.83239H130.689V7.90909ZM139.068 7.90909H137.554V6.21023H136.465V7.90909H135.394V8.83239H136.465V13.2642C136.465 14.5014 137.462 15.0923 138.385 15.0923C138.791 15.0923 139.05 15.0185 139.198 14.9631L138.976 13.9844C138.884 14.0028 138.736 14.0398 138.496 14.0398C138.016 14.0398 137.554 13.892 137.554 12.9688V8.83239H139.068V7.90909ZM143.512 15.1477C145.432 15.1477 146.725 13.6889 146.725 11.4915C146.725 9.27557 145.432 7.81676 143.512 7.81676C141.591 7.81676 140.299 9.27557 140.299 11.4915C140.299 13.6889 141.591 15.1477 143.512 15.1477ZM143.512 14.169C142.053 14.169 141.388 12.9134 141.388 11.4915C141.388 10.0696 142.053 8.79545 143.512 8.79545C144.97 8.79545 145.635 10.0696 145.635 11.4915C145.635 12.9134 144.97 14.169 143.512 14.169ZM152.746 17.6406C153.729 17.6406 154.426 17.119 154.832 16.0341L157.852 7.92756L156.661 7.90909L154.703 13.5597H154.629L152.672 7.90909H151.49L154.112 15.0369L153.909 15.5909C153.521 16.6527 153.023 16.7543 152.229 16.5511L151.952 17.5114C152.062 17.5668 152.376 17.6406 152.746 17.6406ZM161.92 15.1477C163.84 15.1477 165.133 13.6889 165.133 11.4915C165.133 9.27557 163.84 7.81676 161.92 7.81676C159.999 7.81676 158.707 9.27557 158.707 11.4915C158.707 13.6889 159.999 15.1477 161.92 15.1477ZM161.92 14.169C160.461 14.169 159.796 12.9134 159.796 11.4915C159.796 10.0696 160.461 8.79545 161.92 8.79545C163.379 8.79545 164.043 10.0696 164.043 11.4915C164.043 12.9134 163.379 14.169 161.92 14.169ZM171.265 12.1009C171.265 13.4304 170.249 14.0398 169.437 14.0398C168.532 14.0398 167.885 13.375 167.885 12.3409V7.90909H166.796V12.4148C166.796 14.2244 167.756 15.0923 169.086 15.0923C170.157 15.0923 170.858 14.5199 171.191 13.7997H171.265V15H172.354V7.90909H171.265V12.1009ZM178.154 15H179.206V13.9105H179.335C179.576 14.2983 180.037 15.1477 181.404 15.1477C183.176 15.1477 184.414 13.7259 184.414 11.473C184.414 9.23864 183.176 7.81676 181.385 7.81676C180 7.81676 179.576 8.66619 179.335 9.03551H179.243V5.54545H178.154V15ZM179.225 11.4545C179.225 9.86648 179.926 8.79545 181.256 8.79545C182.641 8.79545 183.324 9.95881 183.324 11.4545C183.324 12.9688 182.622 14.169 181.256 14.169C179.945 14.169 179.225 13.0611 179.225 11.4545ZM186.528 17.6406C187.511 17.6406 188.208 17.119 188.615 16.0341L191.634 7.92756L190.443 7.90909L188.485 13.5597H188.411L186.454 7.90909H185.272L187.894 15.0369L187.691 15.5909C187.304 16.6527 186.805 16.7543 186.011 16.5511L185.734 17.5114C185.845 17.5668 186.159 17.6406 186.528 17.6406Z" fill="white"/>
</svg>
