<svg width="146" height="146" viewBox="0 0 146 146" fill="none" xmlns="http://www.w3.org/2000/svg">
<circle cx="145" cy="1" r="1" transform="rotate(-180 145 1)" fill="white"/>
<circle cx="129" cy="1" r="1" transform="rotate(-180 129 1)" fill="white"/>
<circle cx="113" cy="1" r="1" transform="rotate(-180 113 1)" fill="white"/>
<circle cx="97" cy="1" r="1" transform="rotate(-180 97 1)" fill="white"/>
<circle cx="81" cy="1" r="1" transform="rotate(-180 81 1)" fill="white"/>
<circle cx="65" cy="1" r="1" transform="rotate(-180 65 1)" fill="white"/>
<circle cx="49" cy="1" r="1" transform="rotate(-180 49 1)" fill="white"/>
<circle cx="33" cy="1" r="1" transform="rotate(-180 33 1)" fill="white"/>
<circle cx="17" cy="1" r="1" transform="rotate(-180 17 1)" fill="white"/>
<circle opacity="0.8" cx="1" cy="1" r="1" transform="rotate(-180 1 1)" fill="white"/>
<circle cx="145" cy="17" r="1" transform="rotate(-180 145 17)" fill="white"/>
<circle cx="129" cy="17" r="1" transform="rotate(-180 129 17)" fill="white"/>
<circle cx="113" cy="17" r="1" transform="rotate(-180 113 17)" fill="white"/>
<circle cx="97" cy="17" r="1" transform="rotate(-180 97 17)" fill="white"/>
<circle cx="81" cy="17" r="1" transform="rotate(-180 81 17)" fill="white"/>
<circle cx="65" cy="17" r="1" transform="rotate(-180 65 17)" fill="white"/>
<circle cx="49" cy="17" r="1" transform="rotate(-180 49 17)" fill="white"/>
<circle cx="33" cy="17" r="1" transform="rotate(-180 33 17)" fill="white"/>
<circle cx="17" cy="17" r="1" transform="rotate(-180 17 17)" fill="white"/>
<circle cx="145" cy="33" r="1" transform="rotate(-180 145 33)" fill="white"/>
<circle cx="129" cy="33" r="1" transform="rotate(-180 129 33)" fill="white"/>
<circle cx="113" cy="33" r="1" transform="rotate(-180 113 33)" fill="white"/>
<circle cx="97" cy="33" r="1" transform="rotate(-180 97 33)" fill="white"/>
<circle cx="81" cy="33" r="1" transform="rotate(-180 81 33)" fill="white"/>
<circle cx="65" cy="33" r="1" transform="rotate(-180 65 33)" fill="white"/>
<circle cx="49" cy="33" r="1" transform="rotate(-180 49 33)" fill="white"/>
<circle cx="33" cy="33" r="1" transform="rotate(-180 33 33)" fill="white"/>
<circle cx="145" cy="49" r="1" transform="rotate(-180 145 49)" fill="white"/>
<circle cx="129" cy="49" r="1" transform="rotate(-180 129 49)" fill="white"/>
<circle cx="113" cy="49" r="1" transform="rotate(-180 113 49)" fill="white"/>
<circle cx="97" cy="49" r="1" transform="rotate(-180 97 49)" fill="white"/>
<circle cx="81" cy="49" r="1" transform="rotate(-180 81 49)" fill="white"/>
<circle cx="65" cy="49" r="1" transform="rotate(-180 65 49)" fill="white"/>
<circle cx="49" cy="49" r="1" transform="rotate(-180 49 49)" fill="white"/>
<circle cx="145" cy="65" r="1" transform="rotate(-180 145 65)" fill="white"/>
<circle cx="129" cy="65" r="1" transform="rotate(-180 129 65)" fill="white"/>
<circle cx="113" cy="65" r="1" transform="rotate(-180 113 65)" fill="white"/>
<circle cx="97" cy="65" r="1" transform="rotate(-180 97 65)" fill="white"/>
<circle cx="81" cy="65" r="1" transform="rotate(-180 81 65)" fill="white"/>
<circle cx="65" cy="65" r="1" transform="rotate(-180 65 65)" fill="white"/>
<circle cx="145" cy="81" r="1" transform="rotate(-180 145 81)" fill="white"/>
<circle cx="129" cy="81" r="1" transform="rotate(-180 129 81)" fill="white"/>
<circle cx="113" cy="81" r="1" transform="rotate(-180 113 81)" fill="white"/>
<circle cx="97" cy="81" r="1" transform="rotate(-180 97 81)" fill="white"/>
<circle cx="81" cy="81" r="1" transform="rotate(-180 81 81)" fill="white"/>
<circle cx="145" cy="97" r="1" transform="rotate(-180 145 97)" fill="white"/>
<circle cx="129" cy="97" r="1" transform="rotate(-180 129 97)" fill="white"/>
<circle cx="113" cy="97" r="1" transform="rotate(-180 113 97)" fill="white"/>
<circle cx="97" cy="97" r="1" transform="rotate(-180 97 97)" fill="white"/>
<circle cx="145" cy="113" r="1" transform="rotate(-180 145 113)" fill="white"/>
<circle cx="129" cy="113" r="1" transform="rotate(-180 129 113)" fill="white"/>
<circle cx="113" cy="113" r="1" transform="rotate(-180 113 113)" fill="white"/>
<circle cx="145" cy="129" r="1" transform="rotate(-180 145 129)" fill="white"/>
<circle cx="129" cy="129" r="1" transform="rotate(-180 129 129)" fill="white"/>
<circle cx="145" cy="145" r="1" transform="rotate(-180 145 145)" fill="white"/>
</svg>
