<?xml version="1.0" encoding="UTF-8" standalone="no"?>
<!-- Created with Inkscape (http://www.inkscape.org/) -->

<svg
   xmlns:dc="http://purl.org/dc/elements/1.1/"
   xmlns:cc="http://creativecommons.org/ns#"
   xmlns:rdf="http://www.w3.org/1999/02/22-rdf-syntax-ns#"
   xmlns:svg="http://www.w3.org/2000/svg"
   xmlns="http://www.w3.org/2000/svg"
   xmlns:sodipodi="http://sodipodi.sourceforge.net/DTD/sodipodi-0.dtd"
   xmlns:inkscape="http://www.inkscape.org/namespaces/inkscape"
   width="500"
   height="500"
   viewBox="0 0 132.29167 132.29167"
   version="1.1"
   id="svg90"
   inkscape:version="0.92.4 (unknown)"
   sodipodi:docname="progic-logo.svg">
  <defs
     id="defs84" />
  <sodipodi:namedview
     id="base"
     pagecolor="#ffffff"
     bordercolor="#666666"
     borderopacity="1.0"
     inkscape:pageopacity="0.0"
     inkscape:pageshadow="2"
     inkscape:zoom="0.35"
     inkscape:cx="514.28571"
     inkscape:cy="560"
     inkscape:document-units="mm"
     inkscape:current-layer="layer1"
     showgrid="false"
     units="px"
     inkscape:window-width="1920"
     inkscape:window-height="997"
     inkscape:window-x="0"
     inkscape:window-y="0"
     inkscape:window-maximized="1" />
  <metadata
     id="metadata87">
    <rdf:RDF>
      <cc:Work
         rdf:about="">
        <dc:format>image/svg+xml</dc:format>
        <dc:type
           rdf:resource="http://purl.org/dc/dcmitype/StillImage" />
        <dc:title />
      </cc:Work>
    </rdf:RDF>
  </metadata>
  <g
     inkscape:label="Layer 1"
     inkscape:groupmode="layer"
     id="layer1"
     transform="translate(0,-164.70834)">
    <g
       transform="matrix(2.6956202,0,0,2.6956202,-785.56302,-408.94943)"
       id="g874"
       inkscape:export-xdpi="96"
       inkscape:export-ydpi="96">
      <rect
         y="237.08936"
         x="291.52588"
         height="19.84375"
         width="48.989258"
         id="rect4639"
         style="opacity:1;fill:#000000;fill-opacity:1;stroke:none;stroke-width:1;stroke-linecap:round;stroke-linejoin:round;stroke-miterlimit:4;stroke-dasharray:none" />
      <path
         inkscape:connector-curvature="0"
         style="fill:#000000;stroke:none;stroke-width:0.42949688;stroke-miterlimit:4;stroke-dasharray:none"
         d="m 291.82075,220.58892 v 7.62482 7.62505 h 2.53577 2.53598 v -1.87547 -1.87524 l 2.39816,-0.0919 c 2.07807,-0.0795 2.55677,-0.16939 3.58691,-0.67339 2.13193,-1.04306 3.10403,-2.64927 3.09974,-5.12368 -0.004,-2.32097 -1.36152,-4.24807 -3.57871,-5.07974 -0.77416,-0.29039 -1.90475,-0.37779 -5.77044,-0.4459 z m 5.07175,4.04968 h 1.48883 c 1.29901,0 1.55497,0.0661 2.00753,0.51869 0.65788,0.65788 0.67547,1.60227 0.0433,2.32824 -0.39013,0.44801 -0.72201,0.56807 -1.84906,0.66873 -0.75548,0.0675 -1.44494,0.049 -1.53211,-0.0411 -0.0872,-0.0901 -0.15847,-0.90886 -0.15847,-1.81931 z"
         id="path4543-0" />
      <path
         inkscape:connector-curvature="0"
         style="fill:#000000;stroke:none;stroke-width:0.42949688;stroke-miterlimit:4;stroke-dasharray:none"
         d="m 307.45455,220.58892 v 7.62482 7.62505 h 2.53599 2.53576 v -1.90188 -1.9021 h 0.73421 c 0.68891,0 0.81309,0.11746 2.01307,1.9021 l 1.27887,1.90188 h 2.75461 2.75482 l -1.62,-2.33778 c -0.89101,-1.28572 -1.58639,-2.35941 -1.54521,-2.38595 1.91245,-1.23163 2.71244,-2.64299 2.71244,-4.78588 0,-2.45765 -1.30416,-4.35745 -3.57648,-5.2098 -0.77416,-0.29039 -1.90475,-0.37779 -5.77045,-0.4459 z m 5.07175,4.04968 h 1.48883 c 1.29902,0 1.5552,0.0661 2.00775,0.51869 0.65789,0.65788 0.67525,1.60227 0.0431,2.32824 -0.39013,0.44801 -0.72201,0.56807 -1.84905,0.66873 -0.75548,0.0675 -1.44494,0.049 -1.53211,-0.0411 -0.0872,-0.0901 -0.15847,-0.90886 -0.15847,-1.81931 z"
         id="path4545-5" />
      <circle
         style="opacity:1;fill:#000000;fill-opacity:1;stroke:#000000;stroke-width:1.1363771;stroke-miterlimit:4;stroke-dasharray:none"
         id="circle4549-6"
         cx="332.30341"
         cy="228.11832"
         r="8.1961098" />
      <path
         style="fill:#ffffff;stroke:none;stroke-width:0.42949688;stroke-miterlimit:4;stroke-dasharray:none"
         d="m 332.43405,254.21479 c -2.74897,-0.33534 -5.0215,-1.93475 -6.22633,-4.3821 -1.00349,-2.29464 -0.92346,-4.93452 0,-6.82302 1.2066,-2.45096 3.39427,-3.98763 6.32695,-4.44421 2.63968,-0.41096 5.44908,0.64435 7.33819,2.0135 0.69809,0.50594 0.61121,0.38466 1.08294,1.06445 -1.30662,1.05728 -2.23516,1.75733 -3.50679,2.71367 l -0.52232,-0.56359 c -1.61692,-1.74469 -4.66698,-1.46644 -5.78793,0.52802 -0.57605,1.02495 -0.65779,2.97018 -0.16464,3.91837 1.16705,2.24397 3.93817,2.66958 5.78488,0.8885 l 0.67193,-0.64805 c 0.99647,0.84162 3.29619,2.09206 3.63668,2.35332 0.0114,0.17039 -1.03219,1.28882 -1.80981,1.88304 -1.68501,1.28763 -4.13668,1.82587 -6.82375,1.49809 z"
         id="path4541-8"
         inkscape:connector-curvature="0"
         sodipodi:nodetypes="cccssccccccccccc" />
      <path
         inkscape:connector-curvature="0"
         style="fill:#ffffff;stroke:none;stroke-width:0.42949688;stroke-miterlimit:4;stroke-dasharray:none"
         d="m 318.93585,246.42119 v -7.60762 h 2.53588 2.53587 v 7.60762 7.60762 h -2.53587 -2.53588 z"
         id="path4547-5" />
      <path
         sodipodi:nodetypes="ccccssccccccccccccc"
         inkscape:connector-curvature="0"
         id="path4555-3"
         d="m 308.01201,254.2275 v 1e-5 c -2.74898,-0.33534 -5.02151,-1.93474 -6.22634,-4.3821 -1.00349,-2.29464 -0.92346,-4.93452 0,-6.82302 1.2066,-2.45095 3.39427,-3.98763 6.32695,-4.44421 2.63968,-0.41096 5.44908,0.64436 7.33819,2.0135 0.69809,0.50595 0.62764,0.3891 1.09937,1.06889 -1.30662,1.05729 -2.23516,1.75733 -3.5068,2.71367 l -0.52231,-0.56359 c -1.61692,-1.74469 -4.66698,-1.46644 -5.78793,0.52802 -0.57606,1.02495 -0.65779,2.97018 -0.16464,3.91838 1.16705,2.24396 3.97834,2.93072 5.82505,1.14964 l 0.0162,-0.42971 -1.89087,-0.12665 -1.88376,-3.45646 8.19363,0.1096 0.6299,1.11276 -0.13033,1.61635 c -0.82588,5.43251 -5.27035,6.5025 -9.31631,5.99492 z"
         style="fill:#ffffff;stroke:none;stroke-width:0.42949688;stroke-miterlimit:4;stroke-dasharray:none" />
      <path
         sodipodi:nodetypes="cccccccc"
         inkscape:connector-curvature="0"
         id="path4614-3"
         d="m 329.31575,218.38249 5.16764,0.82682 -2.17041,5.58106 4.60228,-1.83501 -6.98434,21.10376 2.11193,-16.59115 -3.11105,1.59417 z"
         style="fill:#ffffff;stroke:none;stroke-width:0.26458332px;stroke-linecap:butt;stroke-linejoin:miter;stroke-opacity:1" />
      <path
         id="path4644"
         d="m 331.69292,238.73474 c -0.39115,0.0938 -0.76793,0.20727 -1.1281,0.34261 l -0.63407,4.98161 z"
         style="fill:#000000;stroke:none;stroke-width:0.26458332px;stroke-linecap:butt;stroke-linejoin:miter;stroke-opacity:1"
         inkscape:connector-curvature="0" />
    </g>
  </g>
</svg>
