<svg width="78" height="56" viewBox="0 0 78 56" fill="none" xmlns="http://www.w3.org/2000/svg">
<g clip-path="url(#clip0)">
<path d="M76.2467 25.1152H0V56H76.2467V25.1152Z" fill="white"/>
<path d="M0.458984 -0.566406V11.3008V23.1684H4.40564H8.35263V20.2495V17.3308L12.0851 17.1878C15.3194 17.0641 16.0645 16.9242 17.6678 16.1397C20.9859 14.5163 22.4989 12.0164 22.4922 8.16528C22.486 4.55294 20.3731 1.5536 16.9223 0.259194C15.7174 -0.192768 13.9578 -0.328785 7.94125 -0.434791L0.458984 -0.566406ZM8.35263 5.7365H10.6698C12.6916 5.7365 13.09 5.83938 13.7944 6.54379C14.8183 7.56771 14.8457 9.03757 13.8618 10.1675C13.2546 10.8647 12.738 11.0516 10.9839 11.2083C9.80806 11.3133 8.735 11.2845 8.59933 11.1443C8.46361 11.0041 8.35267 9.72976 8.35267 8.31274L8.35263 5.7365Z" fill="white"/>
<path d="M24.793 -0.566406V11.3008V23.1684H28.74H32.6866V20.2084V17.2479H33.8293C34.9015 17.2479 35.0948 17.4307 36.9625 20.2084L38.9529 23.1684H43.2402H47.5278L45.0064 19.5299C43.6196 17.5288 42.5373 15.8578 42.6014 15.8165C45.578 13.8995 46.823 11.7029 46.823 8.36772C46.823 4.54264 44.7933 1.58581 41.2566 0.259218C40.0517 -0.192744 38.2921 -0.328785 32.2755 -0.434791L24.793 -0.566406ZM32.6866 5.7365H35.0038C37.0256 5.7365 37.4243 5.83938 38.1287 6.54379C39.1526 7.56771 39.1796 9.03757 38.1958 10.1675C37.5886 10.8647 37.072 11.0516 35.3179 11.2083C34.1421 11.3133 33.069 11.2845 32.9333 11.1443C32.7976 11.0041 32.6867 9.72976 32.6867 8.31274L32.6866 5.7365Z" fill="white"/>
<path d="M63.4654 23.9093C70.5105 23.9093 76.2217 18.198 76.2217 11.1529C76.2217 4.10771 70.5105 -1.60352 63.4654 -1.60352C56.4202 -1.60352 50.709 4.10771 50.709 11.1529C50.709 18.198 56.4202 23.9093 63.4654 23.9093Z" fill="white" stroke="white" stroke-width="4.29497"/>
<path d="M63.6693 51.7688C59.3908 51.2469 55.8539 48.7576 53.9787 44.9486C52.4168 41.3772 52.5414 37.2685 53.9787 34.3293C55.8566 30.5146 59.2615 28.1229 63.8259 27.4123C67.9343 26.7727 72.3068 28.4152 75.247 30.5461C76.3335 31.3336 76.1983 31.1448 76.9325 32.2028C74.8989 33.8484 73.4537 34.9379 71.4745 36.4264L70.6616 35.5492C68.145 32.8338 63.3979 33.2668 61.6533 36.371C60.7567 37.9662 60.6295 40.9938 61.397 42.4695C63.2134 45.962 67.5264 46.6245 70.4006 43.8524L71.4464 42.8438C72.9973 44.1537 76.5765 46.0998 77.1065 46.5064C77.1242 46.7716 75.5 48.5124 74.2897 49.4372C71.6672 51.4413 67.8514 52.279 63.6693 51.7688V51.7688Z" fill="black"/>
<path d="M42.6602 39.6393V27.7988H46.607H50.5538V39.6393V51.4797H46.607H42.6602V39.6393Z" fill="black"/>
<path d="M25.6596 51.7893V51.7893C21.3811 51.2674 17.8441 48.7781 15.9689 44.9691C14.4071 41.3977 14.5316 37.289 15.9689 34.3497C17.8468 30.5351 21.2517 28.1434 25.8161 27.4328C29.9245 26.7932 34.297 28.4357 37.2372 30.5666C38.3237 31.3541 38.2141 31.1722 38.9483 32.2302C36.9147 33.8758 35.4695 34.9653 33.4903 36.4538L32.6774 35.5766C30.1608 32.8612 25.4138 33.2942 23.6691 36.3984C22.7726 37.9936 22.6453 41.0212 23.4129 42.497C25.2293 45.9894 29.6047 47.0583 32.4789 44.2862L32.5042 43.6174L29.5612 43.4203L26.6294 38.0407L39.3818 38.2113L40.3622 39.9432L40.1594 42.4589C38.874 50.914 31.9567 52.5793 25.6596 51.7893V51.7893Z" fill="black"/>
<path d="M58.8163 -4L66.8592 -2.71315L63.4812 5.9732L70.6442 3.11718L59.7738 35.963L63.0608 10.1406L58.2188 12.6217L58.8163 -4Z" fill="black"/>
<path d="M62.5161 27.6758C61.9073 27.8218 61.3209 27.9984 60.7603 28.209L59.7734 35.9624L62.5161 27.6758Z" fill="white"/>
</g>
<defs>
<clipPath id="clip0">
<rect y="-4" width="77.1067" height="60" fill="white"/>
</clipPath>
</defs>
</svg>
